<svg xmlns="http://www.w3.org/2000/svg" viewBox="0 0 200 200" width="200" height="200">
  <defs>
    <linearGradient id="ga" x1="0" y1="0" x2="1" y2="1">
      <stop offset="0%" stop-color="#e8e8e8"/><stop offset="40%" stop-color="#ffffff"/><stop offset="100%" stop-color="#a0a0a0"/>
    </linearGradient>
    <linearGradient id="gb" x1="1" y1="0" x2="0" y2="1">
      <stop offset="0%" stop-color="#e8e8e8"/><stop offset="40%" stop-color="#ffffff"/><stop offset="100%" stop-color="#a0a0a0"/>
    </linearGradient>
  </defs>
  <!-- left-up arm -->
  <rect x="18" y="72" width="90" height="52" rx="3" fill="url(#ga)" transform="rotate(-45 63 98)"/>
  <!-- right-down arm -->
  <rect x="92" y="80" width="90" height="52" rx="3" fill="url(#gb)" transform="rotate(0 137 106)"/>
  <!-- body curve -->
  <path d="M58,152 Q58,88 122,58 L138,58 Q70,82 74,152 Z" fill="#d8d8d8"/>
  <path d="M66,152 Q66,96 122,66 L130,66 Q78,90 82,152 Z" fill="rgba(255,255,255,0.45)"/>
  <!-- end caps -->
  <ellipse cx="42" cy="158" rx="26" ry="8" fill="#c0c0c0" transform="rotate(0)"/>
  <ellipse cx="42" cy="158" rx="17" ry="5" fill="#2a2a2a"/>
  <ellipse cx="158" cy="42" rx="8" ry="26" fill="#c0c0c0"/>
  <ellipse cx="158" cy="42" rx="5" ry="17" fill="#2a2a2a"/>
  <text x="100" y="185" text-anchor="middle" font-family="sans-serif" font-size="12" font-weight="bold" fill="#C8981F">1/8 BEND H×H</text>
  <text x="100" y="198" text-anchor="middle" font-family="sans-serif" font-size="9" fill="#888">45° Elbow</text>
</svg>
