<svg xmlns="http://www.w3.org/2000/svg" viewBox="0 0 200 200" width="200" height="200">
  <defs>
    <linearGradient id="gv" x1="0" y1="0" x2="1" y2="0">
      <stop offset="0%" stop-color="#b8b8b8"/><stop offset="35%" stop-color="#ffffff"/><stop offset="100%" stop-color="#a0a0a0"/>
    </linearGradient>
    <linearGradient id="gh" x1="0" y1="0" x2="0" y2="1">
      <stop offset="0%" stop-color="#c0c0c0"/><stop offset="35%" stop-color="#ffffff"/><stop offset="100%" stop-color="#a8a8a8"/>
    </linearGradient>
  </defs>
  <!-- horizontal run -->
  <rect x="15" y="82" width="170" height="52" rx="3" fill="url(#gv)"/>
  <rect x="15" y="90" width="170" height="14" fill="rgba(255,255,255,0.4)"/>
  <!-- vertical branch (swept) -->
  <path d="M84,30 L116,30 L116,108 Q100,134 84,108 Z" fill="url(#gh)"/>
  <rect x="90" y="30" width="12" height="78" fill="rgba(255,255,255,0.35)"/>
  <!-- left end cap -->
  <ellipse cx="15" cy="108" rx="8" ry="26" fill="#c0c0c0"/>
  <ellipse cx="15" cy="108" rx="5" ry="17" fill="#2a2a2a"/>
  <!-- right end cap -->
  <ellipse cx="185" cy="108" rx="8" ry="26" fill="#c0c0c0"/>
  <ellipse cx="185" cy="108" rx="5" ry="17" fill="#2a2a2a"/>
  <!-- top end cap -->
  <ellipse cx="100" cy="30" rx="16" ry="6" fill="#c0c0c0"/>
  <ellipse cx="100" cy="30" rx="10" ry="4" fill="#2a2a2a"/>
  <text x="100" y="172" text-anchor="middle" font-family="sans-serif" font-size="12" font-weight="bold" fill="#C8981F">SANITARY TEE</text>
  <text x="100" y="186" text-anchor="middle" font-family="sans-serif" font-size="10" fill="#888">All Hub</text>
</svg>
